<svg width="19" height="16" viewBox="0 0 19 16" fill="none" xmlns="http://www.w3.org/2000/svg">
<g clip-path="url(#clip0_30_4733)">
<path fill-rule="evenodd" clip-rule="evenodd" d="M10.5502 9.99775C10.7491 9.99775 10.9398 10.0768 11.0805 10.2174C11.2211 10.3581 11.3002 10.5488 11.3002 10.7477V12.25C11.3003 12.3486 11.2809 12.4462 11.2433 12.5372C11.2056 12.6283 11.1504 12.7111 11.0808 12.7808C11.0111 12.8505 10.9284 12.9058 10.8373 12.9436C10.7463 12.9813 10.6487 13.0007 10.5502 13.0007H0.785157C0.586244 13.0007 0.395479 12.9217 0.254827 12.7811C0.114174 12.6404 0.0351566 12.4497 0.0351566 12.2507V10.7492C0.0350581 10.6507 0.0543847 10.5531 0.0920316 10.462C0.129678 10.3709 0.184907 10.2882 0.254561 10.2184C0.324215 10.1487 0.406928 10.0934 0.497971 10.0557C0.589014 10.0179 0.686602 9.9985 0.785157 9.9985L10.5502 9.99775ZM14.2852 5.50525C14.3838 5.50525 14.4814 5.5247 14.5725 5.56248C14.6636 5.60027 14.7464 5.65565 14.816 5.72545C14.8857 5.79525 14.9409 5.87811 14.9785 5.96928C15.0161 6.06044 15.0354 6.15813 15.0352 6.25675V7.7575C15.0352 7.95641 14.9561 8.14718 14.8155 8.28783C14.6748 8.42848 14.4841 8.5075 14.2852 8.5075H0.785157C0.586244 8.5075 0.395479 8.42848 0.254827 8.28783C0.114174 8.14718 0.0351566 7.95641 0.0351566 7.7575V6.2575C0.0350581 6.15895 0.0543847 6.06134 0.0920316 5.97026C0.129678 5.87918 0.184907 5.79641 0.254561 5.72669C0.324215 5.65696 0.406928 5.60165 0.497971 5.56391C0.589014 5.52617 0.686602 5.50675 0.785157 5.50675L14.2852 5.50525ZM8.30766 1C8.50657 1 8.69733 1.07902 8.83799 1.21967C8.97864 1.36032 9.05766 1.55109 9.05766 1.75V3.2515C9.05776 3.35005 9.03843 3.44766 9.00078 3.53874C8.96313 3.62982 8.90791 3.71259 8.83825 3.78232C8.7686 3.85204 8.68589 3.90735 8.59484 3.94509C8.5038 3.98283 8.40621 4.00225 8.30766 4.00225H0.785907C0.586994 4.00225 0.396229 3.92323 0.255577 3.78258C0.114924 3.64193 0.0359066 3.45116 0.0359066 3.25225V1.75C0.0359065 1.55122 0.114821 1.36057 0.255311 1.21993C0.395801 1.0793 0.586374 1.0002 0.785157 1H8.30766Z" fill="white" fill-opacity="0.6"/>
</g>
<defs>
<clipPath id="clip0_30_4733">
<rect width="18" height="16" fill="white" transform="translate(0.0351562)"/>
</clipPath>
</defs>
</svg>
