<svg width="17" height="16" viewBox="0 0 17 16" fill="none" xmlns="http://www.w3.org/2000/svg">
<path fill-rule="evenodd" clip-rule="evenodd" d="M7.46373 13.8928H3.54873C3.16625 13.8928 2.79943 13.7409 2.52898 13.4705C2.25852 13.2 2.10658 12.8332 2.10658 12.4507V8.53571H7.46373V13.8928ZM1.03516 3.54928V12.4507C1.03516 13.1173 1.29998 13.7567 1.77136 14.2281C2.24275 14.6995 2.88209 14.9643 3.54873 14.9643H12.4502C13.1168 14.9643 13.7561 14.6995 14.2275 14.2281C14.6989 13.7567 14.9637 13.1173 14.9637 12.4507V3.54928C14.9637 2.88264 14.6989 2.2433 14.2275 1.77191C13.7561 1.30053 13.1168 1.03571 12.4502 1.03571H3.54873C2.88209 1.03571 2.24275 1.30053 1.77136 1.77191C1.29998 2.2433 1.03516 2.88264 1.03516 3.54928ZM8.53516 7.46428H13.8923V3.54928C13.8923 2.75321 13.2462 2.10713 12.4502 2.10713H8.53516V7.46428ZM10.1423 4.11606C9.9647 4.11606 9.79437 4.18661 9.66879 4.3122C9.54321 4.43778 9.47266 4.60811 9.47266 4.78571C9.47266 4.96331 9.54321 5.13363 9.66879 5.25921C9.79437 5.3848 9.9647 5.45535 10.1423 5.45535H12.2852C12.4628 5.45535 12.6331 5.3848 12.7587 5.25921C12.8842 5.13363 12.9548 4.96331 12.9548 4.78571C12.9548 4.60811 12.8842 4.43778 12.7587 4.3122C12.6331 4.18661 12.4628 4.11606 12.2852 4.11606H10.1423ZM2.77623 4.78571C2.77623 4.41606 3.07623 4.11606 3.44587 4.11606H4.11551V3.44642C4.11551 3.26882 4.18606 3.09849 4.31165 2.97291C4.43723 2.84733 4.60756 2.77678 4.78516 2.77678C4.96276 2.77678 5.13308 2.84733 5.25867 2.97291C5.38425 3.09849 5.4548 3.26882 5.4548 3.44642V4.11606H6.12444C6.30204 4.11606 6.47237 4.18661 6.59795 4.3122C6.72353 4.43778 6.79408 4.60811 6.79408 4.78571C6.79408 4.96331 6.72353 5.13363 6.59795 5.25921C6.47237 5.3848 6.30204 5.45535 6.12444 5.45535H5.4548V6.12499C5.4548 6.30259 5.38425 6.47292 5.25867 6.5985C5.13308 6.72408 4.96276 6.79463 4.78516 6.79463C4.60756 6.79463 4.43723 6.72408 4.31165 6.5985C4.18606 6.47292 4.11551 6.30259 4.11551 6.12499V5.45535H3.44587C3.26827 5.45535 3.09794 5.3848 2.97236 5.25921C2.84678 5.13363 2.77623 4.96331 2.77623 4.78571ZM4.12301 9.60499C4.06082 9.5428 3.98699 9.49347 3.90574 9.45981C3.82448 9.42615 3.73739 9.40883 3.64944 9.40883C3.56149 9.40883 3.4744 9.42615 3.39315 9.45981C3.31189 9.49347 3.23806 9.5428 3.17587 9.60499C3.11368 9.66718 3.06435 9.74101 3.03069 9.82227C2.99703 9.90352 2.97971 9.99061 2.97971 10.0786C2.97971 10.1665 2.99703 10.2536 3.03069 10.3349C3.06435 10.4161 3.11368 10.4899 3.17587 10.5521L3.83801 11.2143L3.17587 11.8764C3.11368 11.9386 3.06435 12.0124 3.03069 12.0937C2.99703 12.175 2.97971 12.262 2.97971 12.35C2.97971 12.4379 2.99703 12.525 3.03069 12.6063C3.06435 12.6875 3.11368 12.7614 3.17587 12.8236C3.23806 12.8858 3.31189 12.9351 3.39315 12.9687C3.4744 13.0024 3.56149 13.0197 3.64944 13.0197C3.73739 13.0197 3.82448 13.0024 3.90574 12.9687C3.98699 12.9351 4.06082 12.8858 4.12301 12.8236L4.78516 12.1614L5.4473 12.8236C5.50949 12.8858 5.58332 12.9351 5.66458 12.9687C5.74583 13.0024 5.83292 13.0197 5.92087 13.0197C6.00882 13.0197 6.09591 13.0024 6.17717 12.9687C6.25842 12.9351 6.33225 12.8858 6.39444 12.8236C6.45663 12.7614 6.50596 12.6875 6.53962 12.6063C6.57328 12.525 6.5906 12.4379 6.5906 12.35C6.5906 12.262 6.57328 12.175 6.53962 12.0937C6.50596 12.0124 6.45663 11.9386 6.39444 11.8764L5.7323 11.2143L6.39444 10.5521C6.52004 10.4265 6.5906 10.2562 6.5906 10.0786C6.5906 9.90094 6.52004 9.73059 6.39444 9.60499C6.26884 9.47939 6.09849 9.40883 5.92087 9.40883C5.74325 9.40883 5.5729 9.47939 5.4473 9.60499L4.78516 10.2671L4.12301 9.60499ZM10.1423 9.33928C9.9647 9.33928 9.79437 9.40983 9.66879 9.53541C9.54321 9.66099 9.47266 9.83132 9.47266 10.0089C9.47266 10.1865 9.54321 10.3568 9.66879 10.4824C9.79437 10.608 9.9647 10.6786 10.1423 10.6786H12.2852C12.4628 10.6786 12.6331 10.608 12.7587 10.4824C12.8842 10.3568 12.9548 10.1865 12.9548 10.0089C12.9548 9.83132 12.8842 9.66099 12.7587 9.53541C12.6331 9.40983 12.4628 9.33928 12.2852 9.33928H10.1423ZM9.47266 12.4196C9.47266 12.05 9.77266 11.75 10.1423 11.75H12.2852C12.4628 11.75 12.6331 11.8205 12.7587 11.9461C12.8842 12.0717 12.9548 12.242 12.9548 12.4196C12.9548 12.5972 12.8842 12.7676 12.7587 12.8931C12.6331 13.0187 12.4628 13.0893 12.2852 13.0893H10.1423C9.9647 13.0893 9.79437 13.0187 9.66879 12.8931C9.54321 12.7676 9.47266 12.5972 9.47266 12.4196Z" fill="white" fill-opacity="0.6"/>
</svg>
