<svg width="19" height="16" viewBox="0 0 19 16" fill="none" xmlns="http://www.w3.org/2000/svg">
<path fill-rule="evenodd" clip-rule="evenodd" d="M2.91016 1.75C2.41288 1.75 1.93596 1.94754 1.58433 2.29917C1.2327 2.65081 1.03516 3.12772 1.03516 3.625V12.375C1.03516 12.8723 1.2327 13.3492 1.58433 13.7008C1.93596 14.0525 2.41288 14.25 2.91016 14.25H8.53516V11.125C8.53516 10.6277 8.7327 10.1508 9.08433 9.79917C9.43596 9.44754 9.91288 9.25 10.4102 9.25H13.5352V3.625C13.5352 3.12772 13.3376 2.65081 12.986 2.29917C12.6344 1.94754 12.1574 1.75 11.6602 1.75H2.91016ZM10.5933 13.7006C10.3686 13.9253 10.0905 14.0892 9.78516 14.1769V11.125C9.78516 10.9592 9.851 10.8003 9.96821 10.6831C10.0854 10.5658 10.2444 10.5 10.4102 10.5H13.462C13.3743 10.8054 13.2104 11.0835 12.9858 11.3081L10.5933 13.7006ZM4.16016 4.25C3.9944 4.25 3.83542 4.31585 3.71821 4.43306C3.601 4.55027 3.53516 4.70924 3.53516 4.875C3.53516 5.04076 3.601 5.19973 3.71821 5.31694C3.83542 5.43415 3.9944 5.5 4.16016 5.5H10.4102C10.5759 5.5 10.7349 5.43415 10.8521 5.31694C10.9693 5.19973 11.0352 5.04076 11.0352 4.875C11.0352 4.70924 10.9693 4.55027 10.8521 4.43306C10.7349 4.31585 10.5759 4.25 10.4102 4.25H4.16016ZM4.16016 6.75C3.9944 6.75 3.83542 6.81585 3.71821 6.93306C3.601 7.05027 3.53516 7.20924 3.53516 7.375C3.53516 7.54076 3.601 7.69973 3.71821 7.81694C3.83542 7.93415 3.9944 8 4.16016 8H10.4102C10.5759 8 10.7349 7.93415 10.8521 7.81694C10.9693 7.69973 11.0352 7.54076 11.0352 7.375C11.0352 7.20924 10.9693 7.05027 10.8521 6.93306C10.7349 6.81585 10.5759 6.75 10.4102 6.75H4.16016ZM4.16016 9.25C3.9944 9.25 3.83542 9.31585 3.71821 9.43306C3.601 9.55027 3.53516 9.70924 3.53516 9.875C3.53516 10.0408 3.601 10.1997 3.71821 10.3169C3.83542 10.4342 3.9944 10.5 4.16016 10.5H6.66016C6.82592 10.5 6.98489 10.4342 7.1021 10.3169C7.21931 10.1997 7.28516 10.0408 7.28516 9.875C7.28516 9.70924 7.21931 9.55027 7.1021 9.43306C6.98489 9.31585 6.82592 9.25 6.66016 9.25H4.16016Z" fill="white" fill-opacity="0.6"/>
</svg>
