<svg width="17" height="16" viewBox="0 0 17 16" fill="none" xmlns="http://www.w3.org/2000/svg">
<g clip-path="url(#clip0_30_4751)">
<path d="M8.2089 3.16532C8.16238 3.12082 8.10048 3.09598 8.03609 3.09598C7.97171 3.09598 7.90981 3.12082 7.86328 3.16532L2.11016 8.66126C2.08572 8.68463 2.06629 8.71272 2.05302 8.74382C2.03975 8.77492 2.03293 8.80838 2.03297 8.8422L2.03203 14.0003C2.03203 14.2655 2.13739 14.5199 2.32493 14.7074C2.51246 14.895 2.76682 15.0003 3.03203 15.0003H6.03516C6.16776 15.0003 6.29494 14.9476 6.38871 14.8539C6.48248 14.7601 6.53516 14.6329 6.53516 14.5003V10.2503C6.53516 10.184 6.56149 10.1204 6.60838 10.0735C6.65526 10.0267 6.71885 10.0003 6.78516 10.0003H9.28515C9.35146 10.0003 9.41505 10.0267 9.46193 10.0735C9.50882 10.1204 9.53515 10.184 9.53515 10.2503V14.5003C9.53515 14.6329 9.58783 14.7601 9.6816 14.8539C9.77537 14.9476 9.90255 15.0003 10.0352 15.0003H13.037C13.3022 15.0003 13.5566 14.895 13.7441 14.7074C13.9317 14.5199 14.037 14.2655 14.037 14.0003V8.8422C14.0371 8.80838 14.0302 8.77492 14.017 8.74382C14.0037 8.71272 13.9843 8.68463 13.9598 8.66126L8.2089 3.16532Z" fill="white" fill-opacity="0.6"/>
<path d="M15.3765 7.6306L13.039 5.39435V2.00092C13.039 1.86831 12.9863 1.74113 12.8925 1.64736C12.7988 1.55359 12.6716 1.50092 12.539 1.50092H11.039C10.9064 1.50092 10.7792 1.55359 10.6854 1.64736C10.5917 1.74113 10.539 1.86831 10.539 2.00092V3.00092L8.72899 1.27029C8.55962 1.09904 8.30774 1.00092 8.03555 1.00092C7.7643 1.00092 7.51305 1.09904 7.34368 1.2706L0.696807 7.62998C0.502432 7.81748 0.478057 8.12591 0.654932 8.32904C0.699348 8.38031 0.753732 8.42201 0.814775 8.45159C0.875818 8.48118 0.942243 8.49804 1.01001 8.50113C1.07777 8.50423 1.14546 8.49351 1.20895 8.46962C1.27243 8.44573 1.3304 8.40917 1.37931 8.36216L7.86368 2.16592C7.9102 2.12141 7.97211 2.09657 8.03649 2.09657C8.10088 2.09657 8.16278 2.12141 8.2093 2.16592L14.6943 8.36216C14.7898 8.45377 14.9178 8.50377 15.0501 8.50119C15.1824 8.49861 15.3084 8.44367 15.4002 8.34841C15.5921 8.14966 15.5762 7.82154 15.3765 7.6306Z" fill="white" fill-opacity="0.6"/>
</g>
<defs>
<clipPath id="clip0_30_4751">
<rect width="16" height="16" fill="white" transform="translate(0.0351562)"/>
</clipPath>
</defs>
</svg>
