<svg width="17" height="16" viewBox="0 0 17 16" fill="none" xmlns="http://www.w3.org/2000/svg">
<g clip-path="url(#clip0_30_4758)">
<path d="M11.2971 11.2L10.6804 12.3595L13.6996 11.8659C13.0904 11.5603 12.2656 11.3419 11.2971 11.2ZM3.51948 11.4528C2.12108 11.8216 1.23516 12.4259 1.23516 13.3235C1.23573 13.5168 1.27797 13.7076 1.359 13.8831L6.2046 13.0911L3.51948 11.4528ZM14.7216 12.8L7.97756 13.8992L9.75612 15.9226C12.6768 15.661 14.8352 14.728 14.8352 13.3235C14.8352 13.1363 14.7948 12.9623 14.7216 12.8ZM6.83804 14.089L2.28124 14.8338C3.48572 15.5799 5.61164 16 8.03516 16C8.18204 16 8.32556 15.9959 8.4702 15.9928L6.83804 14.089Z" fill="white" fill-opacity="0.6"/>
<path d="M8.03547 0C5.42747 0 3.28763 2.13328 3.28763 4.73536C3.28763 5.73568 3.60555 6.66752 4.14235 7.43376L7.21979 12.7538L7.23291 12.7709C7.35435 12.9294 7.47291 13.0546 7.61211 13.1466C7.75131 13.2387 7.92411 13.2938 8.09371 13.2768C8.43259 13.2429 8.64011 13.0035 8.83707 12.7366L8.84763 12.7229L12.2451 6.94032L12.247 6.93664C12.3267 6.79264 12.3856 6.64608 12.4355 6.50336C12.6644 5.94202 12.7823 5.3416 12.7827 4.73536C12.7827 2.13328 10.6435 0 8.03547 0ZM8.03547 2.7272C9.16683 2.7272 10.0499 3.60864 10.0499 4.7352C10.0499 5.86208 9.16683 6.7432 8.03547 6.7432C6.90395 6.7432 6.02043 5.86192 6.02043 4.7352C6.02043 3.6088 6.90411 2.7272 8.03547 2.7272Z" fill="white" fill-opacity="0.6"/>
</g>
<defs>
<clipPath id="clip0_30_4758">
<rect width="16" height="16" fill="white" transform="translate(0.0351562)"/>
</clipPath>
</defs>
</svg>
