<svg width="17" height="16" viewBox="0 0 17 16" fill="none" xmlns="http://www.w3.org/2000/svg">
<path d="M6.80116 1.5C6.95946 1.34196 7.15111 1.22132 7.36207 1.14693C7.57302 1.07253 7.79795 1.04626 8.02037 1.07004C8.2428 1.09381 8.45709 1.16703 8.64755 1.28434C8.83802 1.40165 8.99984 1.56007 9.12116 1.748L9.30116 2.026L5.06116 6.266L4.78316 6.086C4.59522 5.96468 4.4368 5.80286 4.3195 5.6124C4.20219 5.42193 4.12897 5.20764 4.10519 4.98522C4.08142 4.76279 4.10769 4.53787 4.18208 4.32691C4.25648 4.11595 4.37711 3.9243 4.53516 3.766L6.80116 1.5ZM5.92116 6.82L9.85616 2.886L11.0882 4.798C11.127 4.85779 11.1781 4.90859 11.2382 4.947L13.1482 6.179L9.21416 10.114L7.98216 8.202C7.94335 8.14221 7.89221 8.09141 7.83216 8.053L5.92116 6.82ZM9.76816 10.974L9.94816 11.252C10.0695 11.4401 10.2313 11.5987 10.4219 11.7161C10.6124 11.8335 10.8268 11.9068 11.0494 11.9306C11.272 11.9544 11.497 11.928 11.7081 11.8535C11.9191 11.779 12.1108 11.6582 12.2692 11.5L14.5352 9.234C14.6934 9.07569 14.8142 8.88398 14.8887 8.67292C14.9632 8.46186 14.9895 8.2368 14.9657 8.01424C14.942 7.79169 14.8687 7.57727 14.7513 7.38672C14.6338 7.19616 14.4753 7.0343 14.2872 6.913L14.0092 6.733L9.76816 10.974ZM5.91316 8.005L1.47416 12.443C1.19276 12.7244 1.03468 13.106 1.03468 13.504C1.03468 13.902 1.19276 14.2836 1.47416 14.565C1.75555 14.8464 2.1372 15.0045 2.53516 15.0045C2.93311 15.0045 3.31476 14.8464 3.59616 14.565L8.03316 10.127L7.20016 8.835L5.91316 8.005ZM10.0352 13C9.90255 13 9.77537 13.0527 9.6816 13.1464C9.58783 13.2402 9.53516 13.3674 9.53516 13.5C9.53516 13.6326 9.58783 13.7598 9.6816 13.8536C9.77537 13.9473 9.90255 14 10.0352 14H8.53516C8.40255 14 8.27537 14.0527 8.1816 14.1464C8.08783 14.2402 8.03516 14.3674 8.03516 14.5C8.03516 14.6326 8.08783 14.7598 8.1816 14.8536C8.27537 14.9473 8.40255 15 8.53516 15H14.5352C14.6678 15 14.7949 14.9473 14.8887 14.8536C14.9825 14.7598 15.0352 14.6326 15.0352 14.5C15.0352 14.3674 14.9825 14.2402 14.8887 14.1464C14.7949 14.0527 14.6678 14 14.5352 14H13.0352C13.1678 14 13.2949 13.9473 13.3887 13.8536C13.4825 13.7598 13.5352 13.6326 13.5352 13.5C13.5352 13.3674 13.4825 13.2402 13.3887 13.1464C13.2949 13.0527 13.1678 13 13.0352 13H10.0352Z" fill="white" fill-opacity="0.6"/>
</svg>
