<svg width="17" height="16" viewBox="0 0 17 16" fill="none" xmlns="http://www.w3.org/2000/svg">
<path d="M7.36849 14V11.16C7.05516 11.2733 6.72182 11.3333 6.36849 11.3333C4.70182 11.3333 3.36849 10 3.36849 8.33333C3.36849 7.48667 3.70182 6.72667 4.27516 6.18C4.12182 5.82 4.03516 5.42 4.03516 5C4.03516 3.33333 5.36849 2 7.03516 2C8.07516 2 8.99516 2.53333 9.53516 3.33333H9.70182C10.1833 3.33333 10.6601 3.42817 11.105 3.61244C11.5499 3.79671 11.9541 4.06679 12.2945 4.40728C12.635 4.74776 12.9051 5.15197 13.0894 5.59683C13.2736 6.04169 13.3685 6.51849 13.3685 7C13.3685 7.48151 13.2736 7.95831 13.0894 8.40317C12.9051 8.84803 12.635 9.25224 12.2945 9.59273C11.9541 9.93321 11.5499 10.2033 11.105 10.3876C10.6601 10.5718 10.1833 10.6667 9.70182 10.6667C9.36849 10.6667 9.03516 10.62 8.70182 10.5267V14H7.36849Z" fill="white" fill-opacity="0.6"/>
</svg>
