<svg width="17" height="16" viewBox="0 0 17 16" fill="none" xmlns="http://www.w3.org/2000/svg">
<path d="M9.36849 6C9.1796 6 9.02138 5.936 8.89382 5.808C8.76627 5.68 8.70227 5.52178 8.70182 5.33333V2.66667C8.70182 2.47778 8.76582 2.31956 8.89382 2.192C9.02182 2.06444 9.18005 2.00044 9.36849 2H13.3685C13.5574 2 13.7158 2.064 13.8438 2.192C13.9718 2.32 14.0356 2.47822 14.0352 2.66667V5.33333C14.0352 5.52222 13.9712 5.68067 13.8432 5.80867C13.7152 5.93667 13.5569 6.00044 13.3685 6H9.36849ZM2.70182 8.66667C2.51293 8.66667 2.35471 8.60267 2.22716 8.47467C2.0996 8.34667 2.0356 8.18844 2.03516 8V2.66667C2.03516 2.47778 2.09916 2.31956 2.22716 2.192C2.35516 2.06444 2.51338 2.00044 2.70182 2H6.70182C6.89071 2 7.04916 2.064 7.17716 2.192C7.30516 2.32 7.36893 2.47822 7.36849 2.66667V8C7.36849 8.18889 7.30449 8.34733 7.17649 8.47533C7.04849 8.60333 6.89027 8.66711 6.70182 8.66667H2.70182ZM9.36849 14C9.1796 14 9.02138 13.936 8.89382 13.808C8.76627 13.68 8.70227 13.5218 8.70182 13.3333V8C8.70182 7.81111 8.76582 7.65289 8.89382 7.52533C9.02182 7.39778 9.18005 7.33378 9.36849 7.33333H13.3685C13.5574 7.33333 13.7158 7.39733 13.8438 7.52533C13.9718 7.65333 14.0356 7.81156 14.0352 8V13.3333C14.0352 13.5222 13.9712 13.6807 13.8432 13.8087C13.7152 13.9367 13.5569 14.0004 13.3685 14H9.36849ZM2.70182 14C2.51293 14 2.35471 13.936 2.22716 13.808C2.0996 13.68 2.0356 13.5218 2.03516 13.3333V10.6667C2.03516 10.4778 2.09916 10.3196 2.22716 10.192C2.35516 10.0644 2.51338 10.0004 2.70182 10H6.70182C6.89071 10 7.04916 10.064 7.17716 10.192C7.30516 10.32 7.36893 10.4782 7.36849 10.6667V13.3333C7.36849 13.5222 7.30449 13.6807 7.17649 13.8087C7.04849 13.9367 6.89027 14.0004 6.70182 14H2.70182Z" fill="white" fill-opacity="0.6"/>
</svg>
