<svg width="18" height="16" viewBox="0 0 18 16" fill="none" xmlns="http://www.w3.org/2000/svg">
<g clip-path="url(#clip0_30_4737)">
<path d="M15.0352 2.84375C15.0352 3.37109 14.6162 3.85742 13.9102 4.25C13.0576 4.72168 11.7861 5.05566 10.3271 5.15527C10.2188 5.10254 10.1104 5.05273 9.99609 5.00879C8.8418 4.52539 7.30664 4.25 5.66016 4.25C5.41699 4.25 5.17969 4.25586 4.94238 4.26758L4.91016 4.25C4.2041 3.85742 3.78516 3.37109 3.78516 2.84375C3.78516 1.54883 6.30469 0.5 9.41016 0.5C12.5156 0.5 15.0352 1.54883 15.0352 2.84375ZM4.74316 5.21973C5.04199 5.19922 5.34961 5.1875 5.66016 5.1875C7.48242 5.1875 9.09961 5.54785 10.1279 6.10742C10.8545 6.50293 11.2852 6.99512 11.2852 7.53125C11.2852 7.64844 11.2646 7.7627 11.2236 7.87402C11.0889 8.26074 10.7256 8.61523 10.1982 8.91406C10.1953 8.91699 10.1895 8.91699 10.1865 8.91992C10.1777 8.92578 10.1689 8.92871 10.1602 8.93457C9.13477 9.50293 7.5 9.87207 5.66016 9.87207C3.91406 9.87207 2.35254 9.54102 1.31836 9.01953C1.2627 8.99316 1.20996 8.96387 1.15723 8.93457C0.454102 8.54492 0.0351562 8.05859 0.0351562 7.53125C0.0351562 6.51172 1.59961 5.6416 3.78516 5.32227C4.09277 5.27832 4.41211 5.24316 4.74316 5.21973ZM12.2227 7.53125C12.2227 6.88965 11.9121 6.3623 11.5166 5.9668C12.3457 5.83789 13.1045 5.63281 13.749 5.36621C14.2266 5.16699 14.6719 4.9209 15.0352 4.61914V5.65625C15.0352 6.22168 14.5518 6.74316 13.752 7.14746C13.3242 7.36426 12.8027 7.54883 12.2168 7.68945C12.2197 7.63672 12.2227 7.58691 12.2227 7.53418V7.53125ZM11.2852 10.3438C11.2852 10.8711 10.8662 11.3574 10.1602 11.75C10.1074 11.7793 10.0547 11.8057 9.99902 11.835C8.96777 12.3564 7.40625 12.6875 5.66016 12.6875C3.82031 12.6875 2.18555 12.3184 1.16016 11.75C0.454102 11.3574 0.0351562 10.8711 0.0351562 10.3438V9.30664C0.401367 9.6084 0.84375 9.85449 1.32129 10.0537C2.47852 10.5371 4.01367 10.8125 5.66016 10.8125C7.30664 10.8125 8.8418 10.5371 9.99902 10.0537C10.2275 9.95996 10.4473 9.85156 10.6553 9.73438C10.834 9.63477 11.001 9.52344 11.1592 9.40625C11.2031 9.37402 11.2441 9.33887 11.2852 9.30664V10.3438ZM12.2227 10.3438V8.64746C12.7793 8.52441 13.292 8.36914 13.749 8.17871C14.2266 7.97949 14.6719 7.7334 15.0352 7.43164V8.46875C15.0352 8.77637 14.8887 9.08398 14.5986 9.37402C14.1211 9.85156 13.2803 10.2441 12.2168 10.499C12.2197 10.4492 12.2227 10.3965 12.2227 10.3438ZM5.66016 13.625C7.30664 13.625 8.8418 13.3496 9.99902 12.8662C10.4766 12.667 10.9219 12.4209 11.2852 12.1191V13.1562C11.2852 14.4512 8.76562 15.5 5.66016 15.5C2.55469 15.5 0.0351562 14.4512 0.0351562 13.1562V12.1191C0.401367 12.4209 0.84375 12.667 1.32129 12.8662C2.47852 13.3496 4.01367 13.625 5.66016 13.625Z" fill="white" fill-opacity="0.6"/>
</g>
<defs>
<clipPath id="clip0_30_4737">
<rect width="17" height="16" fill="white" transform="translate(0.0351562)"/>
</clipPath>
</defs>
</svg>
