<svg width="17" height="16" viewBox="0 0 17 16" fill="none" xmlns="http://www.w3.org/2000/svg">
<path d="M9.36849 6H7.36849C7.00182 6 6.70182 6.3 6.70182 6.66667V9.33333C6.70182 9.7 7.00182 10 7.36849 10H9.36849C9.73516 10 10.0352 9.7 10.0352 9.33333V6.66667C10.0352 6.3 9.73516 6 9.36849 6ZM9.03516 9H7.70182V7H9.03516V9ZM5.36849 8.66667V9.33333C5.36849 9.7 5.06849 10 4.70182 10H2.70182C2.33516 10 2.03516 9.7 2.03516 9.33333V6.66667C2.03516 6.3 2.33516 6 2.70182 6H4.70182C5.06849 6 5.36849 6.3 5.36849 6.66667V7.33333H4.36849V7H3.03516V9H4.36849V8.66667H5.36849ZM13.7018 10.3333H12.3685V11H14.3685V12H11.3685V10.3333C11.3685 9.96667 11.6685 9.66667 12.0352 9.66667H13.3685V9H11.3685V8H13.7018C14.0685 8 14.3685 8.3 14.3685 8.66667V9.66667C14.3685 10.0333 14.0685 10.3333 13.7018 10.3333Z" fill="white" fill-opacity="0.6"/>
</svg>
