<svg width="17" height="16" viewBox="0 0 17 16" fill="none" xmlns="http://www.w3.org/2000/svg">
<g clip-path="url(#clip0_134_5534)">
<path d="M11.3685 2.66666C12.1058 2.66666 12.6718 3.22866 13.0912 3.83332L13.2332 4.04732L13.3632 4.26066C13.4045 4.33043 13.444 4.39888 13.4818 4.46599C14.0065 5.40399 14.4632 6.62866 14.7652 7.83866C15.0652 9.03932 15.2312 10.2933 15.1252 11.2793C15.0185 12.2693 14.5085 13.3333 13.3685 13.3333C12.3458 13.3333 11.5398 12.7867 10.8852 12.2527L10.1452 11.632C9.52982 11.128 8.85649 10.6667 8.03516 10.6667C7.21382 10.6667 6.53982 11.128 5.92582 11.632L5.18582 12.252C4.52982 12.7867 3.72382 13.3333 2.70182 13.3333C1.56116 13.3333 1.05116 12.2693 0.945157 11.2793C0.839823 10.2927 1.00516 9.03932 1.30516 7.83866C1.60716 6.62866 2.06382 5.40399 2.58849 4.46599L2.70716 4.25999L2.83716 4.04732L2.97916 3.83332C3.39849 3.22866 3.96449 2.66666 4.70182 2.66666C5.04182 2.66666 5.37982 2.74932 5.71182 2.84666L6.10716 2.96799C6.17249 2.98799 6.23738 3.0071 6.30182 3.02532C6.87849 3.19066 7.46849 3.33332 8.03516 3.33332C8.60182 3.33332 9.19182 3.19066 9.76849 3.02532L10.3585 2.84732C10.6905 2.74932 11.0285 2.66666 11.3685 2.66666ZM5.70182 5.33332C5.2598 5.33332 4.83587 5.50892 4.52331 5.82148C4.21075 6.13404 4.03516 6.55796 4.03516 6.99999C4.03516 7.44202 4.21075 7.86594 4.52331 8.1785C4.83587 8.49106 5.2598 8.66666 5.70182 8.66666C6.14385 8.66666 6.56777 8.49106 6.88033 8.1785C7.1929 7.86594 7.36849 7.44202 7.36849 6.99999C7.36849 6.55796 7.1929 6.13404 6.88033 5.82148C6.56777 5.50892 6.14385 5.33332 5.70182 5.33332ZM10.3685 5.33332C10.1917 5.33332 10.0221 5.40356 9.89709 5.52859C9.77206 5.65361 9.70182 5.82318 9.70182 5.99999V6.33332H9.36849C9.19168 6.33332 9.02211 6.40356 8.89709 6.52859C8.77206 6.65361 8.70182 6.82318 8.70182 6.99999C8.70182 7.1768 8.77206 7.34637 8.89709 7.47139C9.02211 7.59642 9.19168 7.66666 9.36849 7.66666H9.70182V7.99999C9.70182 8.1768 9.77206 8.34637 9.89709 8.47139C10.0221 8.59642 10.1917 8.66666 10.3685 8.66666C10.5453 8.66666 10.7149 8.59642 10.8399 8.47139C10.9649 8.34637 11.0352 8.1768 11.0352 7.99999V7.66666H11.3685C11.5453 7.66666 11.7149 7.59642 11.8399 7.47139C11.9649 7.34637 12.0352 7.1768 12.0352 6.99999C12.0352 6.82318 11.9649 6.65361 11.8399 6.52859C11.7149 6.40356 11.5453 6.33332 11.3685 6.33332H11.0352V5.99999C11.0352 5.82318 10.9649 5.65361 10.8399 5.52859C10.7149 5.40356 10.5453 5.33332 10.3685 5.33332ZM5.70182 6.66666C5.79023 6.66666 5.87501 6.70178 5.93753 6.76429C6.00004 6.8268 6.03516 6.91158 6.03516 6.99999C6.03516 7.0884 6.00004 7.17318 5.93753 7.23569C5.87501 7.2982 5.79023 7.33332 5.70182 7.33332C5.61342 7.33332 5.52863 7.2982 5.46612 7.23569C5.40361 7.17318 5.36849 7.0884 5.36849 6.99999C5.36849 6.91158 5.40361 6.8268 5.46612 6.76429C5.52863 6.70178 5.61342 6.66666 5.70182 6.66666Z" fill="white" fill-opacity="0.6"/>
</g>
<defs>
<clipPath id="clip0_134_5534">
<rect width="16" height="16" fill="white" transform="translate(0.0351562)"/>
</clipPath>
</defs>
</svg>
