<svg width="18" height="16" viewBox="0 0 18 16" fill="none" xmlns="http://www.w3.org/2000/svg">
<path d="M1.66016 13.25C1.48307 13.25 1.33474 13.19 1.21516 13.07C1.09557 12.95 1.03557 12.8017 1.03516 12.625V6.375C1.03516 6.19792 1.09516 6.04958 1.21516 5.93C1.33516 5.81042 1.48349 5.75042 1.66016 5.75H3.84766C4.02474 5.75 4.17328 5.81 4.29328 5.93C4.41328 6.05 4.47307 6.19833 4.47266 6.375V12.625C4.47266 12.8021 4.41266 12.9506 4.29266 13.0706C4.17266 13.1906 4.02432 13.2504 3.84766 13.25H1.66016ZM6.19141 13.25C6.01432 13.25 5.86599 13.19 5.74641 13.07C5.62682 12.95 5.56682 12.8017 5.56641 12.625V2.625C5.56641 2.44792 5.62641 2.29958 5.74641 2.18C5.86641 2.06042 6.01474 2.00042 6.19141 2H8.37891C8.55599 2 8.70453 2.06 8.82453 2.18C8.94453 2.3 9.00432 2.44833 9.00391 2.625V12.625C9.00391 12.8021 8.94391 12.9506 8.82391 13.0706C8.70391 13.1906 8.55557 13.2504 8.37891 13.25H6.19141ZM10.7227 13.25C10.5456 13.25 10.3972 13.19 10.2777 13.07C10.1581 12.95 10.0981 12.8017 10.0977 12.625V7.625C10.0977 7.44792 10.1577 7.29958 10.2777 7.18C10.3977 7.06042 10.546 7.00042 10.7227 7H12.9102C13.0872 7 13.2358 7.06 13.3558 7.18C13.4758 7.3 13.5356 7.44833 13.5352 7.625V12.625C13.5352 12.8021 13.4752 12.9506 13.3552 13.0706C13.2352 13.1906 13.0868 13.2504 12.9102 13.25H10.7227Z" fill="white" fill-opacity="0.6"/>
</svg>
