<svg width="18" height="16" viewBox="0 0 18 16" fill="none" xmlns="http://www.w3.org/2000/svg">
<path d="M7.66016 8.9375C6.83135 8.9375 6.0365 8.60826 5.45045 8.02221C4.8644 7.43616 4.53516 6.6413 4.53516 5.8125H5.78516C5.78516 6.30978 5.9827 6.78669 6.33433 7.13833C6.68596 7.48996 7.16288 7.6875 7.66016 7.6875C8.15744 7.6875 8.63435 7.48996 8.98598 7.13833C9.33761 6.78669 9.53516 6.30978 9.53516 5.8125H10.7852C10.7852 6.6413 10.4559 7.43616 9.86986 8.02221C9.28381 8.60826 8.48896 8.9375 7.66016 8.9375ZM7.66016 2.6875C8.15744 2.6875 8.63435 2.88504 8.98598 3.23667C9.33761 3.58831 9.53516 4.06522 9.53516 4.5625H5.78516C5.78516 4.06522 5.9827 3.58831 6.33433 3.23667C6.68596 2.88504 7.16288 2.6875 7.66016 2.6875ZM12.0352 4.5625H10.7852C10.7852 4.15212 10.7043 3.74576 10.5473 3.36661C10.3902 2.98747 10.16 2.64297 9.86986 2.35279C9.57968 2.06261 9.23518 1.83242 8.85604 1.67538C8.4769 1.51833 8.07054 1.4375 7.66016 1.4375C6.83135 1.4375 6.0365 1.76674 5.45045 2.35279C4.8644 2.93884 4.53516 3.7337 4.53516 4.5625H3.28516C2.59141 4.5625 2.03516 5.11875 2.03516 5.8125V13.3125C2.03516 13.644 2.16685 13.962 2.40127 14.1964C2.63569 14.4308 2.95364 14.5625 3.28516 14.5625H12.0352C12.3667 14.5625 12.6846 14.4308 12.919 14.1964C13.1535 13.962 13.2852 13.644 13.2852 13.3125V5.8125C13.2852 5.48098 13.1535 5.16304 12.919 4.92862C12.6846 4.6942 12.3667 4.5625 12.0352 4.5625Z" fill="white" fill-opacity="0.6"/>
</svg>
