<svg width="17" height="16" viewBox="0 0 17 16" fill="none" xmlns="http://www.w3.org/2000/svg">
<path d="M6.09766 8C6.42918 8 6.74712 7.8683 6.98154 7.63388C7.21596 7.39946 7.34766 7.08152 7.34766 6.75C7.34766 6.41848 7.21596 6.10054 6.98154 5.86612C6.74712 5.6317 6.42918 5.5 6.09766 5.5C5.76614 5.5 5.44819 5.6317 5.21377 5.86612C4.97935 6.10054 4.84766 6.41848 4.84766 6.75C4.84766 7.08152 4.97935 7.39946 5.21377 7.63388C5.44819 7.8683 5.76614 8 6.09766 8ZM7.97266 1.125L13.9102 4.5625V11.4375L7.97266 14.875L2.03516 11.4375V4.5625L7.97266 1.125ZM3.28516 5.28312V10.7169L4.76766 11.575L9.81328 7.875L12.6602 9.58375V5.28375L7.97266 2.56875L3.28516 5.28312Z" fill="white" fill-opacity="0.6"/>
</svg>
