<svg width="17" height="16" viewBox="0 0 17 16" fill="none" xmlns="http://www.w3.org/2000/svg">
<path fill-rule="evenodd" clip-rule="evenodd" d="M13.3685 8.66668V12C13.3685 12.5304 13.1578 13.0392 12.7827 13.4142C12.4076 13.7893 11.8989 14 11.3685 14H8.70182V8.66668H13.3685ZM7.36849 8.66668V14H4.70182C4.17139 14 3.66268 13.7893 3.28761 13.4142C2.91254 13.0392 2.70182 12.5304 2.70182 12V8.66668H7.36849ZM6.03516 1.33334C6.41348 1.33332 6.78748 1.4138 7.1323 1.56943C7.47713 1.72507 7.7849 1.95229 8.03516 2.23601C8.28542 1.95229 8.59318 1.72507 8.93801 1.56943C9.28284 1.4138 9.65683 1.33332 10.0352 1.33334H10.3685C10.6337 1.33334 10.8881 1.4387 11.0756 1.62624C11.2631 1.81377 11.3685 2.06813 11.3685 2.33334V2.66668C11.3685 3.15268 11.2385 3.60801 11.0118 4.00001H12.7018C13.0554 4.00001 13.3946 4.14049 13.6446 4.39053C13.8947 4.64058 14.0352 4.97972 14.0352 5.33334V6.66668C14.0352 6.90934 13.9705 7.13734 13.8565 7.33334H8.70182V5.33334C8.70182 5.15653 8.63159 4.98696 8.50656 4.86194C8.38154 4.73691 8.21197 4.66668 8.03516 4.66668C7.85835 4.66668 7.68878 4.73691 7.56375 4.86194C7.43873 4.98696 7.36849 5.15653 7.36849 5.33334V7.33334H2.21382C2.09679 7.13065 2.03517 6.90073 2.03516 6.66668V5.33334C2.03516 4.97972 2.17563 4.64058 2.42568 4.39053C2.67573 4.14049 3.01487 4.00001 3.36849 4.00001H5.05849C4.82465 3.59457 4.70164 3.13472 4.70182 2.66668V2.33334C4.70182 2.06813 4.80718 1.81377 4.99472 1.62624C5.18225 1.4387 5.43661 1.33334 5.70182 1.33334H6.03516ZM6.03516 2.66668C6.03516 3.0203 6.17563 3.35944 6.42568 3.60949C6.67573 3.85953 7.01487 4.00001 7.36849 4.00001C7.36849 3.64639 7.22801 3.30725 6.97797 3.0572C6.72792 2.80715 6.38878 2.66668 6.03516 2.66668ZM10.0352 2.66668C9.68153 2.66668 9.3424 2.80715 9.09235 3.0572C8.8423 3.30725 8.70182 3.64639 8.70182 4.00001C9.05545 4.00001 9.39458 3.85953 9.64463 3.60949C9.89468 3.35944 10.0352 3.0203 10.0352 2.66668Z" fill="white" fill-opacity="0.6"/>
</svg>
