<svg width="17" height="16" viewBox="0 0 17 16" fill="none" xmlns="http://www.w3.org/2000/svg">
<path d="M2.03849 2.00201H14.0385C14.2153 2.00201 14.3849 2.07225 14.5099 2.19728C14.6349 2.3223 14.7052 2.49187 14.7052 2.66868V13.3353C14.7052 13.5122 14.6349 13.6817 14.5099 13.8068C14.3849 13.9318 14.2153 14.002 14.0385 14.002H2.03849C1.86168 14.002 1.69211 13.9318 1.56709 13.8068C1.44206 13.6817 1.37182 13.5122 1.37182 13.3353V2.66868C1.37182 2.49187 1.44206 2.3223 1.56709 2.19728C1.69211 2.07225 1.86168 2.00201 2.03849 2.00201ZM10.0385 4.66868V6.00201H7.37182V7.33535H10.0385V8.66868L12.3718 6.66868L10.0385 4.66868ZM6.03849 11.3353V10.002H8.70516V8.66868H6.03849V7.33535L3.70516 9.33535L6.03849 11.3353Z" fill="white" fill-opacity="0.6"/>
</svg>
