<svg width="21" height="22" viewBox="0 0 21 22" fill="none" xmlns="http://www.w3.org/2000/svg">
<path d="M14.2498 17.0001H6.74984C6.35202 17.0001 5.97048 17.1581 5.68918 17.4394C5.40788 17.7207 5.24984 18.1023 5.24984 18.5001V20.0001C5.24984 20.3979 5.40788 20.7794 5.68918 21.0607C5.97048 21.342 6.35202 21.5001 6.74984 21.5001H14.2498C14.6477 21.5001 15.0292 21.342 15.3105 21.0607C15.5918 20.7794 15.7498 20.3979 15.7498 20.0001V18.5001C15.7498 18.1023 15.5918 17.7207 15.3105 17.4394C15.0292 17.1581 14.6477 17.0001 14.2498 17.0001ZM14.2498 20.0001H6.74984V18.5001H14.2498V20.0001ZM20.0301 9.71983L11.0301 0.719834C10.8894 0.579231 10.6987 0.500244 10.4998 0.500244C10.301 0.500244 10.1102 0.579231 9.96959 0.719834L0.96959 9.71983C0.864733 9.82472 0.793328 9.95835 0.764403 10.1038C0.735477 10.2493 0.750329 10.4001 0.807082 10.5371C0.863834 10.6741 0.959939 10.7912 1.08325 10.8736C1.20655 10.956 1.35153 11.0001 1.49984 11.0001H5.24984V14.0001C5.24984 14.3979 5.40788 14.7794 5.68918 15.0607C5.97048 15.342 6.35202 15.5001 6.74984 15.5001H14.2498C14.6475 15.4995 15.0287 15.3413 15.3098 15.0601C15.591 14.7789 15.7492 14.3977 15.7498 14.0001V11.0001H19.4998C19.6482 11.0001 19.7931 10.956 19.9164 10.8736C20.0397 10.7912 20.1358 10.6741 20.1926 10.5371C20.2493 10.4001 20.2642 10.2493 20.2353 10.1038C20.2064 9.95835 20.1349 9.82472 20.0301 9.71983ZM14.2498 9.50008V14.0001H6.74984V9.50008H3.31034L10.4998 2.31058L17.6893 9.50008H14.2498Z" fill="white" fill-opacity="0.8"/>
</svg>
