<svg width="16" height="16" viewBox="0 0 16 16" fill="none" xmlns="http://www.w3.org/2000/svg">
<path d="M12.0002 0.666748C10.1602 0.666748 8.66683 2.16008 8.66683 4.00008V5.33342H2.66683C2.31321 5.33342 1.97407 5.47389 1.72402 5.72394C1.47397 5.97399 1.3335 6.31313 1.3335 6.66675V13.3334C1.3335 13.687 1.47397 14.0262 1.72402 14.2762C1.97407 14.5263 2.31321 14.6667 2.66683 14.6667H10.6668C11.4068 14.6667 12.0002 14.0734 12.0002 13.3334V6.66675C12.0002 6.31313 11.8597 5.97399 11.6096 5.72394C11.3596 5.47389 11.0205 5.33342 10.6668 5.33342H10.0002V4.00008C10.0002 2.89341 10.8935 2.00008 12.0002 2.00008C13.1068 2.00008 14.0002 2.89341 14.0002 4.00008V5.33342H15.3335V4.00008C15.3335 2.16008 13.8402 0.666748 12.0002 0.666748ZM6.66683 8.66675C7.02045 8.66675 7.35959 8.80722 7.60964 9.05727C7.85969 9.30732 8.00016 9.64646 8.00016 10.0001C8.00016 10.7401 7.40683 11.3334 6.66683 11.3334C6.31321 11.3334 5.97407 11.1929 5.72402 10.9429C5.47397 10.6928 5.3335 10.3537 5.3335 10.0001C5.3335 9.64646 5.47397 9.30732 5.72402 9.05727C5.97407 8.80722 6.31321 8.66675 6.66683 8.66675Z" fill="white" fill-opacity="0.8"/>
</svg>
