<svg width="32" height="32" viewBox="0 0 32 32" fill="none" xmlns="http://www.w3.org/2000/svg">
<rect x="0.5" y="0.5" width="31" height="31" rx="15.5" fill="white" fill-opacity="0.25"/>
<rect x="0.5" y="0.5" width="31" height="31" rx="15.5" stroke="#ADF151"/>
<path d="M20.0005 12.6667C20.0005 12.8414 19.9893 13.0134 19.9671 13.1827C20.8409 13.6735 21.4986 14.4744 21.8101 15.4268C22.1216 16.3793 22.0643 17.414 21.6494 18.3263C21.2345 19.2385 20.4924 19.9617 19.5697 20.3529C18.6471 20.7441 17.6112 20.7748 16.6671 20.4387V22.6667H15.3338V20.2667C14.5653 20.6594 13.6829 20.7683 12.8419 20.5744C12.001 20.3805 11.2553 19.8962 10.7363 19.2067C10.2173 18.5173 9.95805 17.6668 10.0043 16.805C10.0505 15.9432 10.3993 15.1254 10.9891 14.4954C11.2496 15.2086 11.6594 15.858 12.1911 16.4001L13.1431 15.4667C12.4105 14.7189 12.0003 13.7137 12.0005 12.6667C12.0005 11.6059 12.4219 10.5885 13.172 9.83832C13.9222 9.08818 14.9396 8.66675 16.0005 8.66675C17.0613 8.66675 18.0787 9.08818 18.8289 9.83832C19.579 10.5885 20.0005 11.6059 20.0005 12.6667Z" fill="#ADF151"/>
</svg>
