<svg width="16" height="16" viewBox="0 0 16 16" fill="none" xmlns="http://www.w3.org/2000/svg">
<path d="M8.00011 2.66675C10.8601 2.66675 13.2421 4.28608 15.1101 7.43608L15.2568 7.68875L15.2868 7.75541L15.3068 7.81075L15.3161 7.84741L15.3254 7.90208L15.3328 7.96875V8.04208L15.3234 8.11608C15.3191 8.14083 15.3133 8.16532 15.3061 8.18941L15.2801 8.26142L15.2561 8.31141L15.2454 8.33141C13.4028 11.5554 11.0454 13.2514 8.20878 13.3307L8.00011 13.3334C5.06944 13.3334 2.64211 11.6341 0.754777 8.33075C0.69725 8.23004 0.666992 8.11606 0.666992 8.00008C0.666992 7.8841 0.69725 7.77012 0.754777 7.66941C2.64211 4.36608 5.06944 2.66675 8.00011 2.66675ZM8.00011 6.00008C7.46968 6.00008 6.96097 6.21079 6.5859 6.58587C6.21082 6.96094 6.00011 7.46965 6.00011 8.00008C6.00011 8.53051 6.21082 9.03922 6.5859 9.4143C6.96097 9.78937 7.46968 10.0001 8.00011 10.0001C8.53054 10.0001 9.03925 9.78937 9.41432 9.4143C9.7894 9.03922 10.0001 8.53051 10.0001 8.00008C10.0001 7.46965 9.7894 6.96094 9.41432 6.58587C9.03925 6.21079 8.53054 6.00008 8.00011 6.00008Z" fill="white" fill-opacity="0.8"/>
</svg>
