<svg width="13" height="15" viewBox="0 0 13 15" fill="none" xmlns="http://www.w3.org/2000/svg">
<path d="M4.33333 7.33333C4.68696 7.33333 5.02609 7.19286 5.27614 6.94281C5.52619 6.69276 5.66667 6.35362 5.66667 6C5.66667 5.64638 5.52619 5.30724 5.27614 5.05719C5.02609 4.80714 4.68696 4.66667 4.33333 4.66667C3.97971 4.66667 3.64057 4.80714 3.39052 5.05719C3.14048 5.30724 3 5.64638 3 6C3 6.35362 3.14048 6.69276 3.39052 6.94281C3.64057 7.19286 3.97971 7.33333 4.33333 7.33333ZM6.33333 0L12.6667 3.66667V11L6.33333 14.6667L0 11V3.66667L6.33333 0ZM1.33333 4.43533V10.2313L2.91467 11.1467L8.29667 7.2L11.3333 9.02267V4.436L6.33333 1.54L1.33333 4.43533Z" fill="white" fill-opacity="0.8"/>
</svg>
