<svg width="11" height="14" viewBox="0 0 11 14" fill="none" xmlns="http://www.w3.org/2000/svg">
<path d="M6.66667 0H1.33333C0.979711 0 0.640573 0.140476 0.390524 0.390524C0.140476 0.640573 0 0.979711 0 1.33333V12C0 12.3536 0.140476 12.6928 0.390524 12.9428C0.640573 13.1929 0.979711 13.3333 1.33333 13.3333H9.33333C9.68696 13.3333 10.0261 13.1929 10.2761 12.9428C10.5262 12.6928 10.6667 12.3536 10.6667 12V4L6.66667 0ZM3.66533 9.46C3.45933 9.65333 3.15533 9.74 2.80133 9.74C2.73268 9.74129 2.66403 9.73728 2.596 9.728V10.6787H2V8.05467C2.26898 8.01466 2.54075 7.99638 2.81267 8C3.184 8 3.448 8.07067 3.626 8.21267C3.79533 8.34733 3.91 8.568 3.91 8.828C3.90933 9.08933 3.82267 9.31 3.66533 9.46ZM6.20333 10.3633C5.92333 10.596 5.49733 10.7067 4.97667 10.7067C4.66467 10.7067 4.444 10.6867 4.294 10.6667V8.05533C4.56308 8.0162 4.83476 7.9977 5.10667 8C5.61133 8 5.93933 8.09067 6.19533 8.284C6.472 8.48933 6.64533 8.81667 6.64533 9.28667C6.64533 9.79533 6.45933 10.1467 6.20333 10.3633ZM8.66667 8.51333H7.64533V9.12067H8.6V9.61H7.64533V10.6793H7.04133V8.02H8.66667V8.51333ZM6.66667 4.66667H6V1.33333L9.33333 4.66667H6.66667Z" fill="white" fill-opacity="0.8"/>
</svg>
